<?xml version="1.0" encoding="UTF-8" standalone="no" ?>
<!DOCTYPE svg PUBLIC "-//W3C//DTD SVG 1.1//EN" "http://www.w3.org/Graphics/SVG/1.1/DTD/svg11.dtd">
<svg xmlns="http://www.w3.org/2000/svg" xmlns:xlink="http://www.w3.org/1999/xlink" version="1.1" width="61" height="61" viewBox="0 0 60 60" xml:space="preserve">
<desc>Created with Fabric.js 3.6.3</desc>
<defs>
</defs>
<g transform="matrix(1.9692780337941629 0 0 1.9692780337941629 640.0153846153846 512.012312418764)" id="background-logo"  >
<rect id="rectangle" style="stroke: none; stroke-width: 1; stroke-dasharray: none; stroke-linecap: butt; stroke-dashoffset: 0; stroke-linejoin: miter; stroke-miterlimit: 10; fill: rgb(255,255,255); fill-rule: nonzero; opacity: 1;"  paint-order="stroke"  x="0" y="0" rx="10" ry="0" width="60" height="60" />
</g>
<g transform="matrix(1.9692780337941629 0 0 1.9692780337941629 640.0146756752924 417.33139383197437)" id="logo-logo"  >
<g style=""  paint-order="stroke"   >
		<g transform="matrix(0.352 0 0 -0.352 -88.73263999999995 0)"  >
<path style="stroke: none; stroke-width: 1; stroke-dasharray: none; stroke-linecap: butt; stroke-dashoffset: 0; stroke-linejoin: miter; stroke-miterlimit: 10; fill: rgb(239,50,126); fill-rule: nonzero; opacity: 1;"  paint-order="stroke"  transform=" translate(-1244.5149999999999, -1569.565)" d="m 1464.18 1293.96 l -274.1 274.08 l 277.12 277.12 l -84.13 84.13 l -361.24 -361.25 l 358.26 -358.2 l 84.09 84.12" stroke-linecap="round" />
</g>
		<g transform="matrix(0.352 0 0 -0.352 88.72735999999998 0)"  >
<path style="stroke: none; stroke-width: 1; stroke-dasharray: none; stroke-linecap: butt; stroke-dashoffset: 0; stroke-linejoin: miter; stroke-miterlimit: 10; fill: rgb(106,200,101); fill-rule: nonzero; opacity: 1;"  paint-order="stroke"  transform=" translate(-1748.17, -1569.565)" d="m 1609.57 1929.29 l -84.1 -84.13 l 277.15 -277.12 l -274.1 -274.08 l 84.09 -84.12 l 358.26 358.2 l -361.3 361.25" stroke-linecap="round" />
</g>
		<g transform="matrix(0.352 0 0 -0.352 0.0003600000000005821 -28.142000000000053)"  >
<path style="stroke: none; stroke-width: 1; stroke-dasharray: none; stroke-linecap: butt; stroke-dashoffset: 0; stroke-linejoin: miter; stroke-miterlimit: 10; fill: rgb(90,175,228); fill-rule: nonzero; opacity: 1;"  paint-order="stroke"  transform=" translate(-1496.35, -1649.435)" d="m 1496.31 1816.05 l -249.04 -249.1 l 84.09 -84.13 l 61.57 61.52 l 36.02 -36.05 l 26.96 26.98 l 39.97 -39.95 l 40.46 40.44 l 27.45 -27.46 l 36.01 36.06 l 61.57 -61.52 l 84.06 84.11 z m 38.61 -149.94 l -38.53 38.55 l -38.61 -38.55 l -19.64 19.64 l 58.25 58.25 l 58.2 -58.21 l -19.67 -19.68" stroke-linecap="round" />
</g>
</g>
</g>
<g transform="matrix(1.9692780337941629 0 0 1.9692780337941629 642.940024040308 785.2542748807589)" id="text-logo-path"  >
<path style="stroke: none; stroke-width: 1; stroke-dasharray: none; stroke-linecap: butt; stroke-dashoffset: 0; stroke-linejoin: miter; stroke-miterlimit: 10; fill: rgb(90,175,228); fill-rule: nonzero; opacity: 1;"  paint-order="stroke"  transform=" translate(-264.225, 18.235)" d="M 3.47 -25.48 L 3.47 -25.48 Q 3.47 -49.92 29.47 -49.92 L 29.47 -49.92 Q 36.92 -49.92 43.33 -47.84 L 43.33 -47.84 L 43.33 -42.29 Q 36.92 -44.72 30.16 -44.72 L 30.16 -44.72 Q 9.88 -44.72 9.88 -25.48 L 9.88 -25.48 Q 9.88 -4.85 30.16 -4.85 L 30.16 -4.85 Q 36.92 -4.85 43.33 -7.28 L 43.33 -7.28 L 43.33 -1.73 Q 36.92 0.35 29.47 0.35 L 29.47 0.35 Q 3.47 0.35 3.47 -25.48 Z M 51.48 -18.2 L 51.48 -18.2 Q 51.48 -36.4 68.82 -36.4 L 68.82 -36.4 Q 86.15 -36.4 86.15 -18.2 L 86.15 -18.2 Q 86.15 -0.03 68.82 -0.03 L 68.82 -0.03 Q 51.55 -0.03 51.48 -18.2 Z M 57.9 -18.34 L 57.9 -18.34 Q 57.9 -5.2 68.82 -5.2 L 68.82 -5.2 Q 79.74 -5.2 79.74 -18.34 L 79.74 -18.34 Q 79.74 -31.2 68.82 -31.2 L 68.82 -31.2 Q 57.9 -31.2 57.9 -18.34 Z M 93.08 -18.93 L 93.08 -18.93 Q 93.08 -36.4 110.35 -36.4 L 110.35 -36.4 Q 115.06 -36.4 119.26 -34.67 L 119.26 -34.67 L 119.26 -49.58 L 125.67 -49.58 L 125.67 -2.18 Q 119.05 0 109.34 0 L 109.34 0 Q 93.08 0 93.08 -18.93 Z M 99.39 -19.17 L 99.39 -19.17 Q 99.39 -5.34 110.38 -5.34 L 110.38 -5.34 Q 115.38 -5.34 119.26 -6.69 L 119.26 -6.69 L 119.26 -28.98 Q 115.38 -30.85 110.38 -30.85 L 110.38 -30.85 Q 99.39 -30.85 99.39 -19.17 Z M 134.34 -18.62 L 134.34 -18.62 Q 134.34 -36.4 151.08 -36.4 L 151.08 -36.4 Q 166.61 -36.4 166.61 -21.04 L 166.61 -21.04 Q 166.61 -18.86 166.3 -16.36 L 166.3 -16.36 L 140.75 -16.36 Q 140.75 -5.2 153.79 -5.2 L 153.79 -5.2 Q 159.99 -5.2 164.81 -6.59 L 164.81 -6.59 L 164.81 -1.39 Q 159.99 0 153.09 0 L 153.09 0 Q 134.34 0 134.34 -18.62 Z M 140.75 -21.7 L 140.75 -21.7 L 160.44 -21.7 Q 160.24 -31.27 151.08 -31.27 L 151.08 -31.27 Q 141.38 -31.27 140.75 -21.7 Z M 199.69 0 L 193.27 0 L 193.27 -49.58 L 225.69 -49.58 L 225.69 -44.38 L 199.69 -44.38 L 199.69 -27.73 L 224.48 -27.73 L 224.48 -22.53 L 199.69 -22.53 L 199.69 0 Z M 239.04 0 L 232.62 0 L 232.62 -36.4 L 236.96 -36.4 L 238.1 -31.76 Q 242.88 -36.4 249.61 -36.4 L 249.61 -36.4 L 249.61 -31.06 Q 243.09 -31.06 239.04 -26.45 L 239.04 -26.45 L 239.04 0 Z M 254.29 -18.62 L 254.29 -18.62 Q 254.29 -36.4 271.03 -36.4 L 271.03 -36.4 Q 286.57 -36.4 286.57 -21.04 L 286.57 -21.04 Q 286.57 -18.86 286.25 -16.36 L 286.25 -16.36 L 260.7 -16.36 Q 260.7 -5.2 273.74 -5.2 L 273.74 -5.2 Q 279.94 -5.2 284.76 -6.59 L 284.76 -6.59 L 284.76 -1.39 Q 279.94 0 273.04 0 L 273.04 0 Q 254.29 0 254.29 -18.62 Z M 260.7 -21.7 L 260.7 -21.7 L 280.39 -21.7 Q 280.19 -31.27 271.03 -31.27 L 271.03 -31.27 Q 261.33 -31.27 260.7 -21.7 Z M 293.46 -18.41 L 293.46 -18.41 Q 293.46 -36.4 311.67 -36.4 L 311.67 -36.4 Q 319.05 -36.4 325.95 -34.91 L 325.95 -34.91 L 325.95 13.17 L 319.53 13.17 L 319.53 -1.73 Q 315.44 0 310.73 0 L 310.73 0 Q 293.46 0 293.46 -18.41 Z M 299.77 -18.48 L 299.77 -18.48 Q 299.77 -5.55 310.76 -5.55 L 310.76 -5.55 Q 315.76 -5.55 319.53 -7.42 L 319.53 -7.42 L 319.53 -30.23 Q 316.24 -31.06 311.39 -31.06 L 311.39 -31.06 Q 299.77 -31.06 299.77 -18.48 Z M 336.35 -13.56 L 336.35 -13.56 L 336.35 -36.4 L 342.76 -36.4 L 342.76 -13.45 Q 342.76 -5.34 350.81 -5.34 L 350.81 -5.34 Q 356.32 -5.34 361.31 -9.95 L 361.31 -9.95 L 361.31 -36.4 L 367.72 -36.4 L 367.72 0 L 363.32 0 L 362.21 -4.65 Q 355.59 0 348.9 0 L 348.9 0 Q 336.35 0 336.35 -13.56 Z M 376.39 -18.62 L 376.39 -18.62 Q 376.39 -36.4 393.13 -36.4 L 393.13 -36.4 Q 408.67 -36.4 408.67 -21.04 L 408.67 -21.04 Q 408.67 -18.86 408.35 -16.36 L 408.35 -16.36 L 382.8 -16.36 Q 382.8 -5.2 395.84 -5.2 L 395.84 -5.2 Q 402.04 -5.2 406.86 -6.59 L 406.86 -6.59 L 406.86 -1.39 Q 402.04 0 395.15 0 L 395.15 0 Q 376.39 0 376.39 -18.62 Z M 382.8 -21.7 L 382.8 -21.7 L 402.5 -21.7 Q 402.29 -31.27 393.13 -31.27 L 393.13 -31.27 Q 383.43 -31.27 382.8 -21.7 Z M 423.71 0 L 417.3 0 L 417.3 -36.4 L 421.63 -36.4 L 422.78 -31.76 Q 428.36 -36.4 435.05 -36.4 L 435.05 -36.4 Q 448.67 -36.4 448.67 -22.85 L 448.67 -22.85 L 448.67 0 L 442.26 0 L 442.26 -22.95 Q 442.26 -31.06 434.18 -31.06 L 434.18 -31.06 Q 428.67 -31.06 423.71 -26.45 L 423.71 -26.45 L 423.71 0 Z M 457.34 -18.89 L 457.34 -18.89 Q 457.34 -36.4 476.75 -36.4 L 476.75 -36.4 Q 481.95 -36.4 486.46 -35.36 L 486.46 -35.36 L 486.46 -30.16 Q 481.95 -31.2 476.41 -31.2 L 476.41 -31.2 Q 463.75 -31.2 463.75 -18.89 L 463.75 -18.89 Q 463.75 -5.2 476.41 -5.2 L 476.41 -5.2 Q 481.95 -5.2 486.46 -6.24 L 486.46 -6.24 L 486.46 -1.04 Q 481.95 0 476.75 0 L 476.75 0 Q 457.34 0 457.34 -18.89 Z M 504.21 0.21 L 490.27 -36.4 L 497.24 -36.4 L 507.54 -7.97 L 518.18 -36.4 L 524.98 -36.4 L 509.86 1.07 Q 505.84 10.99 497.8 13.45 L 497.8 13.45 L 495.34 8.91 Q 501.44 6.24 504.21 0.21 L 504.21 0.21 Z" stroke-linecap="round" />
</g>
</svg>